<svg width="414" height="424" viewBox="0 0 414 424" fill="none" xmlns="http://www.w3.org/2000/svg">
<path opacity="0.41" d="M152.77 295.99C148.703 295.973 144.631 295.81 140.555 295.476C95.8828 291.814 44.1318 270.483 21.8888 231.645C2.44285 197.692 -5.19215 153.734 3.66185 115.867C11.9848 80.2722 37.7889 51.4382 73.9219 40.4892C114.558 28.1762 159.47 43.1372 199.456 26.3212C257.655 1.84622 330.804 21.2832 371.592 67.8502C407.755 109.136 416.508 175.709 405.156 227.291C399.419 253.361 384.327 278.468 360.304 291.593C341.19 302.036 318.085 304.095 296.228 301.373C278.654 299.185 262.474 293.453 245.568 288.736C232.017 284.955 220.898 286.923 207.028 289.668C189.178 293.2 171.028 296.066 152.77 295.99Z" fill="#AFAFAF"/>
<path d="M162.742 271.08C159.451 271.066 156.156 270.934 152.858 270.664C116.71 267.701 74.8349 250.44 56.8369 219.014C41.1019 191.54 34.9229 155.97 42.0879 125.329C48.8229 96.5262 69.7028 73.1942 98.9408 64.3352C131.823 54.3722 168.165 66.4782 200.52 52.8712C247.613 33.0672 306.804 48.7952 339.809 86.4752C369.071 119.883 376.154 173.752 366.968 215.491C362.326 236.586 350.113 256.902 330.674 267.523C315.207 275.973 296.512 277.639 278.825 275.437C264.604 273.666 251.512 269.029 237.832 265.211C226.867 262.151 217.869 263.744 206.646 265.965C192.203 268.823 177.516 271.141 162.742 271.08Z" stroke="white" stroke-width="1.9456" stroke-miterlimit="10" stroke-dasharray="3.85 3.85"/>
<path opacity="0.87" d="M373.911 410.398C383.627 410.398 391.503 409.8 391.503 409.061C391.503 408.323 383.627 407.724 373.911 407.724C364.195 407.724 356.319 408.323 356.319 409.061C356.319 409.8 364.195 410.398 373.911 410.398Z" fill="#515159"/>
<path d="M376.144 358.479C376.144 358.479 361.082 348.246 370.757 333.372C380.432 318.498 378.013 313.329 374.627 309.141C382.85 318.498 381.048 329.159 376.144 335.922C371.24 342.684 370.463 351.887 376.144 358.479Z" fill="#AFAFAF"/>
<path d="M388.433 371.176H359.389L362.224 407.945H385.598L388.433 371.176Z" fill="#FEFEFE"/>
<path d="M391.503 369.295H356.319V373.607H391.503V369.295Z" fill="#8B8B8C"/>
<path d="M384.594 365.417H363.229C361.108 365.417 359.389 367.136 359.389 369.257V369.296H388.434V369.257C388.433 367.136 386.714 365.417 384.594 365.417Z" fill="#5A5A63"/>
<path d="M386.818 392.124L387.505 383.217H360.317L361.004 392.124H386.818Z" fill="#6A1CB9"/>
<path d="M388.433 369.295V369.256C388.433 367.135 386.714 365.416 384.593 365.416H374.012C376.133 365.416 377.852 367.135 377.852 369.256V369.295H380.921V373.607H377.664L375.017 407.944H385.598L388.246 373.607H391.503V369.295H388.433Z" fill="#AFAFAF"/>
<path d="M232.504 140.648C232.504 140.648 238.591 121.559 229.698 116.016C224.045 113.111 220.956 116.73 220.956 116.73C220.956 116.73 218.298 103.233 199.981 107.692C188.116 110.58 184.374 104.464 184.374 104.464C184.374 104.464 184.263 121.383 192.434 126.414C198.35 131.487 196.081 145.2 196.081 145.2L232.504 140.648Z" fill="#2F2F35"/>
<path opacity="0.87" d="M286.465 390.102C286.465 390.102 319.442 391.093 328.645 399.588C338.324 408.523 348.478 422.475 306.812 422.206C265.146 421.937 228.209 410.469 193.263 414.109C158.317 417.748 129.64 424.023 121.286 422.631C112.932 421.239 172.477 392.714 172.477 392.714L283.028 396.771L286.465 390.102Z" fill="#515159"/>
<path d="M255.621 315.926L214.049 311.75L172.477 315.926C172.477 315.926 170.008 335.569 161.98 346.048C214.049 364.748 214.049 364.748 214.049 364.748C214.049 364.748 214.049 364.748 266.118 346.048C258.091 335.569 255.621 315.926 255.621 315.926Z" fill="#3E0970"/>
<path d="M212.407 364.158C214.047 364.747 214.049 364.748 214.049 364.748C214.049 364.748 214.051 364.747 215.689 364.159C225.269 342.12 222.977 317.394 222.409 312.59L214.05 311.75L203.351 312.825C203.137 318.106 202.78 342.26 212.407 364.158Z" fill="#3E0970"/>
<path d="M172.241 317.529C172.243 317.53 215.986 336.823 258.232 328.438C256.334 321.58 255.622 315.926 255.622 315.926L214.05 311.75L180.655 315.105L172.241 317.529Z" fill="#895436"/>
<path d="M192.433 126.413C198.349 131.486 196.08 145.199 196.08 145.199L203.819 144.232C211.767 137.159 220.739 128.204 219.436 124.831C217.153 118.919 210.559 113.018 198.4 112.343C186.241 111.668 184.373 104.463 184.373 104.463C184.373 104.463 184.262 121.382 192.433 126.413Z" fill="#515159"/>
<path d="M212.54 174.315L178.172 186.844L172.477 315.927C172.477 315.927 184.626 321.622 214.049 321.622C214.049 187.456 214.049 176.32 214.049 176.32L212.54 174.315Z" fill="white"/>
<path d="M215.558 174.315L249.926 186.844L255.621 315.927C255.621 315.927 243.472 321.622 214.049 321.622C214.049 187.456 214.049 176.32 214.049 176.32L215.558 174.315Z" fill="white"/>
<path d="M178.172 186.844L178.013 186.901C167.974 190.486 159.952 198.202 155.979 208.094L119.088 297.383L150.458 301.121L177.014 236.036L178.172 186.844Z" fill="#FF7E6E"/>
<path d="M249.926 186.844L250.086 186.901C260.125 190.486 268.147 198.202 272.12 208.094L309.011 297.383L277.641 301.121L251.085 236.036L249.926 186.844Z" fill="#FF7E6E"/>
<path d="M286.445 242.764L272.12 208.093C268.147 198.201 260.125 190.486 250.086 186.9L249.926 186.843L251.085 236.034L258.608 254.472C268.651 246.061 278.727 243.33 286.445 242.764Z" fill="#E8E8E8"/>
<path d="M141.653 242.764L155.978 208.093C159.951 198.201 167.973 190.486 178.012 186.9L178.172 186.843L177.013 236.034L169.49 254.472C159.447 246.061 149.371 243.33 141.653 242.764Z" fill="#E8E8E8"/>
<path d="M252.172 237.735C252.172 237.735 251.241 236.431 249.927 233.988L251.086 236.034C251.086 236.034 238.01 308.61 203.055 321.333C206.416 321.513 210.069 321.62 214.05 321.62C243.473 321.62 255.622 315.925 255.622 315.925L252.172 237.735Z" fill="#D3D3D3"/>
<path opacity="0.52" d="M161.98 228.226C170.845 203.359 171.338 203.549 190.701 198.993C210.063 194.437 206.256 176.607 206.256 176.607L188.204 183.187L185.412 184.205L178.172 186.844L178.012 186.901C167.973 190.486 159.951 198.202 155.978 208.093L120.616 293.682C135.55 282.689 154.429 249.405 161.98 228.226Z" fill="#FFF6E7"/>
<path opacity="0.28" d="M266.118 228.226C257.253 203.359 256.76 203.549 237.397 198.993C218.035 194.437 221.842 176.607 221.842 176.607L239.894 183.187L242.686 184.205L249.925 186.844L250.085 186.901C260.124 190.486 268.146 198.202 272.119 208.093L307.481 293.682C292.548 282.689 273.669 249.405 266.118 228.226Z" fill="#FF7E6E"/>
<path d="M214.142 190.24H213.956C208.876 190.24 204.757 186.122 204.757 181.041V159.078H223.34V181.041C223.341 186.122 219.222 190.24 214.142 190.24Z" fill="#FF7E6E"/>
<path d="M223.192 176.018C223.245 176.018 223.289 176.012 223.341 176.011V159.078H214.666L204.757 162.659C204.757 162.659 208.445 176.018 223.192 176.018Z" fill="#FF7E6E"/>
<path d="M235.665 145.884C235.665 149.18 232.994 151.851 229.698 151.851C226.403 151.851 223.731 149.18 223.731 145.884C223.731 142.588 226.403 139.917 229.698 139.917C232.993 139.917 235.665 142.588 235.665 145.884Z" fill="#FF7E6E"/>
<path d="M230.859 151.734C231.721 148.275 232.227 143.85 232.503 140.648C231.663 140.197 230.717 139.917 229.697 139.917C226.402 139.917 223.73 142.589 223.73 145.884C223.73 149.18 226.402 151.851 229.697 151.851C230.096 151.851 230.483 151.808 230.859 151.734Z" fill="#FF7E6E"/>
<path d="M192.433 145.884C192.433 149.18 195.105 151.851 198.4 151.851C201.696 151.851 204.367 149.18 204.367 145.884C204.367 142.588 201.696 139.917 198.4 139.917C195.105 139.917 192.433 142.588 192.433 145.884Z" fill="#C64F4F"/>
<path d="M197.239 151.734C196.376 148.275 195.871 143.85 195.595 140.648C196.435 140.197 197.381 139.917 198.401 139.917C201.697 139.917 204.368 142.589 204.368 145.884C204.368 149.18 201.696 151.851 198.401 151.851C198.003 151.851 197.615 151.808 197.239 151.734Z" fill="#803D3D"/>
<path d="M224.551 125.014H214.049H203.547L198.349 136.371L199.223 147.611C199.69 153.609 203.565 163.966 209.017 166.511C210.637 167.267 212.353 167.771 214.049 167.771C215.745 167.771 217.461 167.267 219.081 166.511C224.533 163.966 228.408 153.61 228.875 147.611L229.749 136.371L224.551 125.014Z" fill="#FF7E6E"/>
<path d="M219.436 139.271C219.436 139.271 222.96 140.259 226.947 139.271" stroke="#2F2F35" stroke-width="1.3362" stroke-miterlimit="10" stroke-linecap="round"/>
<path d="M218.298 132.812C218.298 132.812 223.445 131.956 226.539 133.739" stroke="#2F2F35" stroke-width="2.6723" stroke-miterlimit="10" stroke-linecap="round"/>
<path d="M208.662 139.271C208.662 139.271 205.138 140.259 201.15 139.271" stroke="#2F2F35" stroke-width="1.3362" stroke-miterlimit="10" stroke-linecap="round"/>
<path d="M209.8 132.812C209.8 132.812 204.653 131.956 201.559 133.739" stroke="#2F2F35" stroke-width="2.6723" stroke-miterlimit="10" stroke-linecap="round"/>
<path opacity="0.52" d="M205.68 149.065C204.994 137.708 203.547 125.014 203.547 125.014L198.349 136.371L198.627 139.939C198.55 139.936 198.478 139.916 198.401 139.916C195.106 139.916 192.434 142.588 192.434 145.883C192.434 149.179 195.106 151.85 198.401 151.85C198.923 151.85 199.421 151.762 199.903 151.636C201.308 157.441 204.656 164.475 209.018 166.511C210.638 167.267 212.354 167.771 214.05 167.771C214.05 167.771 206.366 160.423 205.68 149.065Z" fill="#FFF6E7"/>
<path d="M249.926 366.42L131.158 330.386C115.388 325.601 98.8028 334.885 94.6348 350.828L94.4778 351.43C90.1838 367.857 100.836 384.452 117.561 387.375C161.474 395.051 241.067 408.105 282.957 409.701L300.615 421.473C303.281 423.251 306.821 422.958 309.159 420.766L309.25 420.681C312.028 418.077 312.17 413.714 309.567 410.934L306.813 407.993C306.813 407.993 304.358 396.034 292.234 390.908C280.11 385.783 278.971 373.254 276.124 366.42C273.275 359.586 255.052 356.17 249.926 366.42Z" fill="#FF7E6E"/>
<path d="M94.6348 350.828C98.8028 334.884 115.389 325.601 131.158 330.386L171.435 342.606C165.368 350.175 157.366 365.539 157.124 394.053C142.419 391.663 128.814 389.342 117.56 387.375C100.835 384.452 90.1828 367.856 94.4768 351.43L94.6348 350.828Z" fill="#6A1CB9"/>
<path opacity="0.67" d="M132.101 375.878C132.101 380.721 130.939 385.291 128.891 389.335C124.914 388.653 121.109 387.995 117.561 387.375C100.836 384.452 90.1838 367.856 94.4778 351.43L94.6348 350.828C95.0088 349.396 95.4868 348.02 96.0518 346.701C98.0578 346.275 100.137 346.047 102.27 346.047C118.745 346.048 132.101 359.403 132.101 375.878Z" fill="#3E0970"/>
<path d="M255.621 382.935C255.621 382.935 253.913 392.888 237.398 389.335" stroke="#7B3C38" stroke-width="1.139" stroke-miterlimit="10"/>
<path opacity="0.28" d="M266.118 378.379C266.118 378.379 240.814 377.24 187.283 367.691C143.914 359.955 131.192 337.756 127.924 329.606C129.003 329.804 130.082 330.059 131.157 330.385L249.925 366.419C255.051 356.168 273.274 359.585 276.121 366.419C278.968 373.253 280.107 385.781 292.231 390.907C304.355 396.032 306.81 407.992 306.81 407.992C306.81 407.992 294.344 400.019 286.463 398.311C278.582 396.603 266.118 378.379 266.118 378.379Z" fill="#FF7E6E"/>
<path d="M271.598 409.061C271.598 409.061 293.407 429.928 312 421.341C315.094 419.913 316.063 415.962 314.043 413.219C298.381 391.948 278.634 368.775 271.107 360.066C269.223 357.886 266.24 357.005 263.473 357.809L242.054 364.031L271.598 409.061Z" fill="#2F2F35"/>
<path d="M242.054 364.032L221.539 357.807L237.079 405.628L271.598 409.061L242.054 364.032Z" fill="#A5A5A5"/>
<path d="M178.172 366.42L296.941 330.386C312.711 325.601 329.296 334.885 333.464 350.828L333.621 351.43C337.915 367.857 327.263 384.452 310.538 387.375C266.625 395.051 187.032 408.105 145.142 409.701L127.484 421.473C124.818 423.251 121.278 422.958 118.94 420.766L118.849 420.681C116.071 418.077 115.929 413.714 118.532 410.934L121.286 407.993C121.286 407.993 123.741 396.034 135.865 390.908C147.989 385.783 149.128 373.254 151.975 366.42C154.823 359.586 173.046 356.17 178.172 366.42Z" fill="#FF7E6E"/>
<path d="M333.463 350.828C329.295 334.884 312.709 325.601 296.94 330.386L256.663 342.606C262.73 350.175 270.732 365.539 270.973 394.053C285.678 391.663 299.283 389.342 310.537 387.375C327.262 384.452 337.914 367.856 333.62 351.43L333.463 350.828Z" fill="#6A1CB9"/>
<path opacity="0.67" d="M295.997 375.878C295.997 380.721 297.159 385.291 299.207 389.335C303.184 388.653 306.989 387.995 310.537 387.375C327.262 384.452 337.914 367.856 333.62 351.43L333.463 350.828C333.089 349.396 332.611 348.02 332.046 346.701C330.04 346.275 327.961 346.047 325.828 346.047C309.353 346.048 295.997 359.403 295.997 375.878Z" fill="#3E0970"/>
<path opacity="0.28" d="M161.98 378.379C161.98 378.379 187.284 377.24 240.815 367.691C284.184 359.955 296.906 337.756 300.174 329.606C299.095 329.804 298.016 330.059 296.941 330.385L178.172 366.42C173.047 356.169 154.823 359.586 151.976 366.42C149.129 373.254 147.99 385.782 135.866 390.908C123.742 396.033 121.287 407.993 121.287 407.993C121.287 407.993 133.753 400.02 141.634 398.312C149.514 396.603 161.98 378.379 161.98 378.379Z" fill="#FF7E6E"/>
<path opacity="0.57" d="M135.865 390.908L118.061 387.607C101.947 385.035 91.0338 369.802 93.7828 353.717L93.8908 353.087C96.8878 335.55 114.688 324.703 131.648 330.079L165.265 340.734" stroke="white" stroke-width="1.1139" stroke-miterlimit="10"/>
<path d="M207.943 148.879C207.303 148.879 206.927 149.621 207.32 150.126C209.103 152.415 211.463 153.814 214.058 153.814C216.653 153.814 219.013 152.415 220.796 150.126C221.189 149.621 220.813 148.879 220.173 148.879H207.943Z" fill="white"/>
<path d="M215.812 139.02V145.198C215.812 145.198 214.391 144.395 212.414 145.198" stroke="#2F2F35" stroke-width="0.8212" stroke-miterlimit="10" stroke-linecap="round"/>
<path d="M220.956 116.729H219.436V126.395H220.956V116.729Z" fill="#FF7E6E"/>
<path d="M309.011 297.382L309.074 297.556C312.634 307.412 308.37 318.383 299.088 323.249L235.665 356.495L235.352 355.685C229.764 341.25 235.609 324.9 249.081 317.278L277.642 301.12L309.011 297.382Z" fill="#FF7E6E"/>
<path opacity="0.28" d="M295.619 317.746C295.619 320.087 296.204 322.289 297.226 324.224L299.088 323.248C306.408 319.411 310.588 311.774 310.289 303.884C310.033 303.87 309.78 303.845 309.52 303.845C301.842 303.845 295.619 310.069 295.619 317.746Z" fill="#FF7E6E"/>
<path d="M277.641 301.12L295.619 290.925" stroke="#FF7E6E" stroke-width="1.3362" stroke-miterlimit="10" stroke-linecap="round"/>
<path d="M119.273 297.382L119.21 297.556C115.65 307.412 119.914 318.383 129.196 323.249L192.619 356.495L192.933 355.685C198.521 341.25 192.676 324.9 179.204 317.278L150.643 301.12L119.273 297.382Z" fill="#FF7E6E"/>
<path opacity="0.28" d="M132.665 317.746C132.665 320.087 132.08 322.289 131.058 324.224L129.196 323.248C121.876 319.411 117.697 311.774 117.995 303.884C118.251 303.87 118.504 303.845 118.764 303.845C126.441 303.845 132.665 310.069 132.665 317.746Z" fill="#FF7E6E"/>
<path d="M150.643 301.12L132.665 290.925" stroke="#FF7E6E" stroke-width="1.3362" stroke-miterlimit="10" stroke-linecap="round"/>
<path d="M185.581 352.805C185.581 352.805 188.782 335.241 178.358 329.606" stroke="#FF7E6E" stroke-width="1.3362" stroke-miterlimit="10" stroke-linecap="round"/>
<path d="M242.517 352.805C242.517 352.805 239.316 335.241 249.74 329.606" stroke="#FF7E6E" stroke-width="1.3362" stroke-miterlimit="10" stroke-linecap="round"/>
<path d="M156.5 409.061C156.5 409.061 134.691 429.928 116.098 421.341C113.005 419.913 112.035 415.962 114.055 413.219C129.717 391.948 149.463 368.775 156.991 360.066C158.875 357.886 161.858 357.005 164.625 357.809L186.044 364.031L156.5 409.061Z" fill="#2F2F35"/>
<path d="M186.045 364.032L206.559 357.807L191.019 405.628L156.5 409.061L186.045 364.032Z" fill="#ECECEC"/>
<path opacity="0.28" d="M177.513 377.035C183.598 376.386 191.502 375.435 201.279 374.055L206.559 357.808L186.045 364.032L177.513 377.035Z" fill="#FF7E6E"/>
<path d="M163.036 394.538L151.135 412.676C150.394 413.805 149.07 414.409 147.731 414.227L147.652 414.216C145.074 413.866 143.762 410.929 145.221 408.775L157.393 390.806C158.172 389.656 159.579 389.107 160.93 389.424L161 389.44C163.266 389.972 164.312 392.593 163.036 394.538Z" fill="#FFF6E7"/>
<path d="M212.414 289.707H139.582L157.539 353.668H212.414H267.289L285.246 289.707H212.414Z" fill="#AFAFAF"/>
<path d="M267.289 353.668H157.539V362.984H267.289V353.668Z" fill="#8B8B8C"/>
<path d="M212.539 335.848C222.374 335.848 230.347 331.765 230.347 326.728C230.347 321.691 222.374 317.608 212.539 317.608C202.704 317.608 194.731 321.691 194.731 326.728C194.731 331.765 202.704 335.848 212.539 335.848Z" fill="#5A5A63"/>
<path d="M285.246 285.464H139.582V289.707H285.246V285.464Z" fill="#5A5A63"/>
<path d="M174.609 356.343H163.618V360.088H174.609V356.343Z" fill="#5A5A63"/>
<path d="M190.472 356.343H179.481V360.088H190.472V356.343Z" fill="#5A5A63"/>
<path d="M267.289 358.326H200.495" stroke="#0F1201" stroke-miterlimit="10"/>
<path opacity="0.54" d="M139.582 289.707L157.539 353.669H196.628C219.838 326.759 233.94 289.707 233.94 289.707L233.892 285.464H139.582V289.707Z" fill="white"/>
<path opacity="0.57" d="M139.582 289.707H285.246" stroke="#0F1201" stroke-miterlimit="10"/>
<path opacity="0.87" d="M63.9128 410.398C78.4998 410.398 90.3248 409.8 90.3248 409.061C90.3248 408.323 78.4998 407.724 63.9128 407.724C49.3259 407.724 37.5008 408.323 37.5008 409.061C37.5008 409.8 49.3259 410.398 63.9128 410.398Z" fill="#515159"/>
<path d="M67.7748 395.909L69.5058 394.023L68.6408 394.966L69.5138 394.03C69.3008 393.827 48.4568 372.695 73.6348 277.47L71.1588 276.815C45.4538 374.033 66.8518 395.061 67.7748 395.909Z" fill="#5A5A63"/>
<path d="M60.0098 279.109C69.5458 287.775 67.8748 298.021 67.8748 298.021C67.8748 298.021 58.3248 293.948 56.1098 281.255C55.7208 279.029 58.3378 277.589 60.0098 279.109Z" fill="#5A5A63"/>
<path d="M83.8688 285.226C71.3388 288.234 67.8738 298.021 67.8738 298.021C67.8738 298.021 78.2048 299.046 86.2558 288.984C87.6678 287.22 86.0658 284.699 83.8688 285.226Z" fill="#5A5A63"/>
<path d="M53.4759 304.013C63.8349 311.677 63.2019 322.039 63.2019 322.039C63.2019 322.039 53.2909 318.947 49.8109 306.54C49.2009 304.364 51.6589 302.669 53.4759 304.013Z" fill="#5A5A63"/>
<path d="M77.8298 307.701C65.6658 311.953 63.2018 322.038 63.2018 322.038C63.2018 322.038 73.5838 322.019 80.5818 311.2C81.8088 309.304 79.9618 306.956 77.8298 307.701Z" fill="#5A5A63"/>
<path d="M49.3348 325.852C60.2328 332.728 60.3678 343.109 60.3678 343.109C60.3678 343.109 50.2558 340.759 45.8668 328.643C45.0978 326.519 47.4248 324.646 49.3348 325.852Z" fill="#5A5A63"/>
<path d="M73.8948 327.729C62.0788 332.87 60.3678 343.109 60.3678 343.109C60.3678 343.109 70.7198 342.322 76.8988 331.014C77.9818 329.032 75.9668 326.827 73.8948 327.729Z" fill="#5A5A63"/>
<path d="M80.4378 260.028C80.6538 272.912 72.0428 278.711 72.0428 278.711C72.0428 278.711 68.4708 268.963 76.2028 258.655C77.5578 256.848 80.3998 257.769 80.4378 260.028Z" fill="#5A5A63"/>
<path d="M76.7548 353.689H49.0658V408.465H76.7548V353.689Z" fill="#6A1CB9"/>
<path opacity="0.67" d="M76.7548 353.689H65.6928V408.465H76.7548V353.689Z" fill="#3E0970"/>
<path d="M88.9139 92.4363L78.9508 94.9143C77.5058 95.2743 76.0418 94.3933 75.6828 92.9483L74.7238 89.0923L89.9218 85.3123L90.8808 89.1683C91.2398 90.6143 90.3599 92.0773 88.9139 92.4363Z" fill="#3E0970"/>
<path d="M125.936 80.5553L39.8678 101.96C38.3748 102.331 36.8628 101.422 36.4908 99.9283L22.2968 42.8543C21.9258 41.3613 22.8348 39.8493 24.3288 39.4773L110.397 18.0723C111.89 17.7013 113.402 18.6103 113.773 20.1043L127.967 77.1783C128.339 78.6723 127.429 80.1833 125.936 80.5553Z" fill="#3E0970"/>
<path d="M123.385 70.6913L120.985 77.5873L44.6218 96.5783L37.8408 91.9663L23.7758 35.4163L109.321 14.1413L123.385 70.6913Z" fill="#6A1CB9"/>
<path d="M65.4457 25.0544L23.7709 35.4172L37.8322 91.9654L79.507 81.6025L65.4457 25.0544Z" fill="white"/>
<path d="M62.8701 29.8929L28.6286 38.4074L29.1204 40.3851L63.3619 31.8706L62.8701 29.8929Z" fill="#AFAFAF"/>
<path d="M64.4508 36.2102L30.2093 44.7282L30.7013 46.7059L64.9428 38.1879L64.4508 36.2102Z" fill="#AFAFAF"/>
<path d="M66.0165 42.5477L31.775 51.0622L32.2668 53.0398L66.5083 44.5253L66.0165 42.5477Z" fill="#AFAFAF"/>
<path d="M67.5901 48.8744L33.3485 57.3889L33.8403 59.3666L68.0818 50.852L67.5901 48.8744Z" fill="#AFAFAF"/>
<path d="M69.1716 55.1914L34.93 63.7095L35.422 65.6871L69.6635 57.1691L69.1716 55.1914Z" fill="#AFAFAF"/>
<path d="M70.7364 61.5291L36.4948 70.0436L36.9866 72.0213L71.2281 63.5068L70.7364 61.5291Z" fill="#AFAFAF"/>
<path d="M72.31 67.8558L38.0684 76.3703L38.5602 78.348L72.8017 69.8335L72.31 67.8558Z" fill="#AFAFAF"/>
<path d="M73.8933 74.1726L39.6517 82.6907L40.1437 84.6684L74.3852 76.1503L73.8933 74.1726Z" fill="#AFAFAF"/>
<path d="M109.316 14.1315L67.6415 24.4987L81.7086 81.0468L123.383 70.6796L109.316 14.1315Z" fill="white"/>
<path d="M106.426 19.0499L72.1848 27.568L72.6768 29.5456L106.918 21.0276L106.426 19.0499Z" fill="#AFAFAF"/>
<path d="M107.995 25.3912L73.7532 33.9058L74.2449 35.8834L108.486 27.3689L107.995 25.3912Z" fill="#AFAFAF"/>
<path d="M109.567 31.7192L75.3259 40.2337L75.8177 42.2114L110.059 33.6968L109.567 31.7192Z" fill="#AFAFAF"/>
<path d="M111.148 38.031L76.9066 46.549L77.3985 48.5267L111.64 40.0087L111.148 38.031Z" fill="#AFAFAF"/>
<path d="M112.715 44.3728L78.473 52.8873L78.9648 54.865L113.206 46.3505L112.715 44.3728Z" fill="#AFAFAF"/>
<path d="M114.287 50.7006L80.0459 59.2151L80.5376 61.1928L114.779 52.6783L114.287 50.7006Z" fill="#AFAFAF"/>
<path d="M115.87 57.012L81.6283 65.53L82.1203 67.5077L116.362 58.9897L115.87 57.012Z" fill="#AFAFAF"/>
<path d="M117.433 63.3544L83.1919 71.8689L83.6837 73.8466L117.925 65.3321L117.433 63.3544Z" fill="#AFAFAF"/>
<path d="M86.3039 89.1313L79.7098 90.7713C78.2648 91.1303 76.8028 90.2503 76.4428 88.8063L75.8408 86.3853L87.6668 83.4443L88.2688 85.8653C88.6278 87.3093 87.7479 88.7723 86.3039 89.1313Z" fill="#6A1CB9"/>
<path d="M232.657 7.81725C229.237 4.56525 224.916 2.34725 220.467 0.86525C220.437 0.85525 220.369 0.83625 220.267 0.80925C216.237 -0.26975 211.989 -0.26975 207.959 0.80925C207.858 0.83625 207.789 0.85525 207.759 0.86525C203.31 2.34725 198.989 4.56625 195.569 7.81725C185.389 17.4962 187.043 35.0642 196.957 44.3342C199.738 46.9342 200.959 50.2913 201.81 53.9923C202.067 55.1073 203.542 66.7323 203.027 66.7323C208.002 66.7323 214.112 66.7323 214.112 66.7323C214.112 66.7323 220.222 66.7323 225.197 66.7323C224.683 66.7323 226.158 55.1063 226.414 53.9923C227.266 50.2923 228.487 46.9352 231.268 44.3342C241.183 35.0652 242.836 17.4972 232.657 7.81725Z" fill="#6A1CB9"/>
<path opacity="0.52" d="M210.126 53.9923C209.275 50.2923 208.053 46.9353 205.273 44.3343C195.359 35.0643 193.705 17.4963 203.885 7.81726C207.305 4.56526 211.626 2.34726 216.075 0.865258C216.105 0.855258 216.173 0.836258 216.275 0.809258C216.935 0.632258 217.601 0.495257 218.271 0.376257C214.851 -0.230743 211.329 -0.0937421 207.959 0.809258C207.858 0.836258 207.789 0.855258 207.759 0.865258C203.31 2.34726 198.988 4.56626 195.569 7.81726C185.389 17.4963 187.043 35.0643 196.957 44.3343C199.738 46.9343 200.959 50.2913 201.81 53.9923C202.067 55.1073 203.542 66.7323 203.027 66.7323C205.884 66.7323 209.109 66.7323 211.343 66.7323C211.858 66.7323 210.383 55.1063 210.126 53.9923Z" fill="#FFF6E7"/>
<path d="M214.113 66.7322V39.6202L218.885 36.8692C220.462 35.9602 220.147 33.5972 218.387 33.1332L209.703 30.8412C208.222 30.4502 208.054 28.4162 209.451 27.7872L214.112 25.6902V16.4872" stroke="#FEFEFE" stroke-width="2.2387" stroke-miterlimit="10" stroke-linecap="round"/>
<path d="M227.404 70.4633C227.404 71.2873 226.736 71.9553 225.912 71.9553H201.536C200.712 71.9553 200.044 71.2873 200.044 70.4633C200.044 69.6393 200.712 68.9713 201.536 68.9713H225.912C226.735 68.9713 227.404 69.6393 227.404 70.4633Z" fill="#2F2F35"/>
<path d="M227.404 74.9402C227.404 75.7642 226.736 76.4332 225.912 76.4332H201.536C200.712 76.4332 200.044 75.7652 200.044 74.9402C200.044 74.1162 200.712 73.4482 201.536 73.4482H225.912C226.735 73.4482 227.404 74.1162 227.404 74.9402Z" fill="#2F2F35"/>
<path d="M227.404 79.4173C227.404 80.2413 226.736 80.9093 225.912 80.9093H201.536C200.712 80.9093 200.044 80.2413 200.044 79.4173C200.044 78.5933 200.712 77.9243 201.536 77.9243H225.912C226.735 77.9253 227.404 78.5933 227.404 79.4173Z" fill="#2F2F35"/>
<path d="M213.723 91.3563C218.531 91.3563 222.429 87.4583 222.429 82.6503H205.018C205.018 87.4593 208.915 91.3563 213.723 91.3563Z" fill="#2F2F35"/>
<path d="M316.856 97.0803V90.0713H313.759C313.173 86.7423 311.812 83.6883 309.868 81.0873L312.325 78.6303L307.369 73.6743L304.82 76.2233C302.211 74.4413 299.178 73.2473 295.911 72.7763V69.1153H288.903V72.9133C285.77 73.5043 282.89 74.7863 280.406 76.5893L277.925 74.1083L272.969 79.0643L275.482 81.5773C273.646 84.1883 272.396 87.2303 271.889 90.5223H268.41V97.5303H271.966C272.54 100.742 273.834 103.696 275.678 106.234L272.94 108.972L277.896 113.928L280.669 111.156C283.211 112.942 286.162 114.173 289.355 114.705V118.488H296.363V114.705C299.545 114.176 302.486 112.952 305.023 111.176L307.341 113.494L312.297 108.538L310.019 106.26C311.959 103.599 313.287 100.475 313.82 97.0803H316.856ZM292.859 105.696C286.275 105.696 280.937 100.358 280.937 93.7743C280.937 87.1893 286.275 81.8523 292.859 81.8523C299.444 81.8523 304.781 87.1903 304.781 93.7743C304.781 100.359 299.444 105.696 292.859 105.696Z" fill="#666666"/>
<path d="M344.804 123.662V119.619H343.017C342.679 117.698 341.894 115.937 340.773 114.436L342.191 113.018L339.332 110.159L337.862 111.629C336.357 110.601 334.607 109.912 332.722 109.64V107.528H328.679V109.719C326.872 110.06 325.21 110.8 323.777 111.84L322.346 110.409L319.487 113.268L320.937 114.718C319.878 116.224 319.157 117.979 318.864 119.878H316.857V123.921H318.909C319.24 125.774 319.987 127.478 321.05 128.942L319.47 130.522L322.329 133.381L323.928 131.782C325.395 132.813 327.097 133.523 328.938 133.829V136.011H332.981V133.829C334.817 133.524 336.514 132.818 337.977 131.793L339.314 133.13L342.173 130.271L340.859 128.957C341.978 127.422 342.745 125.62 343.051 123.661L344.804 123.662ZM330.96 128.632C327.162 128.632 324.082 125.553 324.082 121.754C324.082 117.956 327.161 114.876 330.96 114.876C334.759 114.876 337.838 117.955 337.838 121.754C337.838 125.553 334.759 128.632 330.96 128.632Z" fill="#9E9E9E"/>
<path d="M408.504 71.2993V56.9063H402.143C400.939 50.0693 398.145 43.7982 394.153 38.4552L399.2 33.4082L389.023 23.2313L383.789 28.4653C378.431 24.8063 372.203 22.3543 365.493 21.3853V13.8672H351.1V21.6673C344.667 22.8803 338.751 25.5143 333.65 29.2173L328.556 24.1232L318.379 34.3003L323.54 39.4612C319.769 44.8232 317.203 51.0702 316.162 57.8312H309.016V72.2242H316.32C317.499 78.8202 320.157 84.8863 323.943 90.0983L318.319 95.7222L328.496 105.899L334.19 100.206C339.411 103.875 345.47 106.403 352.027 107.494V115.263H366.42V107.494C372.954 106.407 378.995 103.894 384.204 100.246L388.965 105.007L399.142 94.8302L394.465 90.1532C398.449 84.6882 401.177 78.2743 402.27 71.3003L408.504 71.2993ZM359.223 88.9953C345.701 88.9953 334.739 78.0332 334.739 64.5122C334.739 50.9902 345.701 40.0282 359.223 40.0282C372.745 40.0282 383.707 50.9902 383.707 64.5122C383.707 78.0332 372.745 88.9953 359.223 88.9953Z" fill="#8B8B8C"/>
<path d="M358.76 78.9332C366.695 78.9332 373.127 72.5009 373.127 64.5662C373.127 56.6316 366.695 50.1992 358.76 50.1992C350.825 50.1992 344.393 56.6316 344.393 64.5662C344.393 72.5009 350.825 78.9332 358.76 78.9332Z" fill="#666666"/>
<path d="M78.9058 138.061C48.0358 139.933 24.0398 158.433 25.3108 179.381C26.5818 200.329 52.6368 215.793 83.5068 213.92C83.5298 213.919 83.5528 213.917 83.5758 213.916C86.6138 213.729 88.7388 210.794 87.9878 207.845C87.6228 206.41 87.4168 204.907 87.3928 203.355C87.2358 193.37 94.9598 184.791 104.906 183.892C112.124 183.24 118.718 186.633 122.524 192.155C124.402 194.88 128.394 195.073 130.425 192.459C135.066 186.485 137.532 179.684 137.102 172.601C135.832 151.652 109.777 136.188 78.9058 138.061Z" fill="#5A5A63"/>
<path d="M78.7008 134.671C47.8308 136.543 23.8348 155.043 25.1058 175.991C26.3768 196.939 52.4318 212.403 83.3028 210.53C83.3258 210.529 83.3488 210.527 83.3718 210.526C86.4098 210.339 88.5348 207.404 87.7838 204.455C87.4188 203.02 87.2128 201.517 87.1888 199.965C87.0318 189.98 94.7558 181.401 104.702 180.502C111.92 179.85 118.514 183.243 122.32 188.765C124.198 191.49 128.19 191.683 130.221 189.069C134.862 183.095 137.328 176.294 136.898 169.211C135.626 148.262 109.571 132.798 78.7008 134.671Z" fill="#8B8B8C"/>
<path d="M67.7979 194.055C68.0239 197.776 65.1898 200.976 61.4688 201.202C57.7478 201.428 54.5478 198.594 54.3218 194.873C54.0958 191.152 56.9298 187.952 60.6508 187.726C64.3718 187.5 67.5719 190.334 67.7979 194.055Z" fill="#6A1CB9"/>
<path d="M49.4079 181.279C49.6339 185 46.7998 188.2 43.0788 188.426C39.3578 188.652 36.1578 185.818 35.9318 182.097C35.7058 178.376 38.5398 175.176 42.2608 174.95C45.9828 174.724 49.1819 177.558 49.4079 181.279Z" fill="#6A1CB9"/>
<path d="M54.8148 158.933C55.0408 162.654 52.2068 165.854 48.4858 166.08C44.7648 166.306 41.5649 163.472 41.3389 159.751C41.1129 156.03 43.9468 152.83 47.6678 152.604C51.3898 152.378 54.5898 155.212 54.8148 158.933Z" fill="#6A1CB9"/>
<path d="M77.6059 146.856C77.8319 150.577 74.9978 153.777 71.2768 154.003C67.5558 154.229 64.3559 151.395 64.1299 147.674C63.9039 143.953 66.7378 140.753 70.4588 140.527C74.1798 140.301 77.3799 143.135 77.6059 146.856Z" fill="#6A1CB9"/>
<path d="M103.277 147.186C103.503 150.907 100.669 154.107 96.9478 154.333C93.2268 154.559 90.0268 151.725 89.8008 148.004C89.5748 144.283 92.4088 141.083 96.1298 140.857C99.8508 140.631 103.051 143.465 103.277 147.186Z" fill="#6A1CB9"/>
<path d="M124.944 159.397C125.17 163.118 122.336 166.318 118.615 166.544C114.894 166.77 111.694 163.936 111.468 160.215C111.242 156.494 114.076 153.294 117.797 153.068C121.519 152.842 124.719 155.676 124.944 159.397Z" fill="#6A1CB9"/>
<path opacity="0.68" d="M108.745 138.669L102.39 151.965C101.552 151.924 100.742 152.4 100.408 153.222L100.39 153.267C99.9659 154.307 100.466 155.494 101.507 155.918L102.103 156.161C101.986 156.122 101.38 156.051 100.102 157.912L100.101 157.914C100.024 158.026 99.9439 158.147 99.8619 158.274C99.8539 158.287 99.8458 158.299 99.8368 158.312C99.7608 158.431 99.6818 158.557 99.6008 158.689C99.5848 158.716 99.5688 158.742 99.5518 158.769C99.4758 158.894 99.3988 159.025 99.3198 159.162C99.2968 159.202 99.2728 159.243 99.2488 159.285C99.1738 159.416 99.0978 159.552 99.0198 159.694C98.9888 159.75 98.9578 159.808 98.9258 159.866C98.8518 160.003 98.7758 160.145 98.6988 160.292C98.6608 160.364 98.6229 160.438 98.5839 160.513C98.5099 160.656 98.4349 160.802 98.3579 160.955C98.3129 161.045 98.2669 161.138 98.2199 161.232C98.1459 161.381 98.0718 161.532 97.9968 161.689C97.9448 161.797 97.8918 161.909 97.8378 162.022C97.7638 162.179 97.6888 162.337 97.6128 162.502C97.5548 162.626 97.4958 162.757 97.4368 162.886C97.3618 163.051 97.2868 163.216 97.2098 163.389C97.1448 163.535 97.0779 163.689 97.0109 163.842C96.9369 164.011 96.8628 164.179 96.7868 164.355C96.7138 164.525 96.6388 164.703 96.5638 164.88C96.4898 165.056 96.4158 165.229 96.3398 165.412C96.2598 165.604 96.1778 165.806 96.0958 166.005C96.0218 166.186 95.9489 166.363 95.8729 166.551C95.7849 166.77 95.6928 167.002 95.6028 167.231C95.5298 167.416 95.4578 167.596 95.3828 167.788C95.2818 168.046 95.1778 168.318 95.0738 168.588C95.0068 168.763 94.9409 168.931 94.8729 169.111C94.7499 169.435 94.6238 169.775 94.4968 170.114C94.4438 170.257 94.3918 170.393 94.3378 170.539C94.1558 171.033 93.9699 171.542 93.7799 172.071C93.2709 173.488 92.6758 175.156 92.0198 177.006C91.9438 177.221 91.8699 177.43 91.7909 177.65C91.6919 177.93 91.5878 178.223 91.4858 178.512C91.4008 178.752 91.3178 178.987 91.2308 179.233C91.0968 179.612 90.9589 180.004 90.8209 180.396C90.7589 180.572 90.6989 180.743 90.6359 180.921C90.4989 181.309 90.3588 181.707 90.2188 182.106C90.1478 182.309 90.0768 182.508 90.0048 182.714C89.8728 183.088 89.7388 183.472 89.6038 183.855C89.5208 184.092 89.4388 184.324 89.3548 184.564C89.1998 185.007 89.0418 185.458 88.8828 185.911C88.8228 186.081 88.7649 186.248 88.7049 186.42C88.5439 186.882 88.3798 187.351 88.2148 187.822C88.1448 188.023 88.0748 188.222 88.0048 188.424C87.8518 188.862 87.6968 189.307 87.5418 189.752C87.4628 189.979 87.3848 190.203 87.3048 190.432C87.1398 190.904 86.9738 191.382 86.8078 191.861C86.7358 192.067 86.6648 192.271 86.5938 192.478C86.4298 192.949 86.2648 193.425 86.0998 193.902C86.0168 194.14 85.9348 194.376 85.8528 194.615C85.7048 195.043 85.5558 195.473 85.4068 195.904C85.3008 196.209 85.1958 196.514 85.0898 196.821C84.9618 197.191 84.8328 197.564 84.7048 197.936C84.5828 198.29 84.4608 198.643 84.3378 198.998C84.2008 199.396 84.0628 199.795 83.9258 200.194C83.8538 200.403 83.7818 200.61 83.7098 200.82C82.5888 204.077 81.4588 207.382 80.3468 210.656C81.3268 210.631 82.3128 210.59 83.3038 210.53C83.3268 210.529 83.3498 210.527 83.3728 210.526C86.4108 210.339 88.5358 207.404 87.7848 204.455C87.4198 203.02 87.2138 201.517 87.1898 199.965C87.0528 191.226 92.9508 183.565 101.093 181.185C101.993 179.237 102.797 177.489 103.47 176.014C110.632 160.33 108.852 158.924 108.627 158.815L109.223 159.058C110.263 159.481 111.45 158.981 111.874 157.941L111.892 157.896C112.288 156.923 111.87 155.83 110.963 155.345L115.725 141.655C113.523 140.541 111.192 139.542 108.745 138.669Z" fill="#2F2F35"/>
<path opacity="0.42" d="M53.6468 157.9C53.7408 159.456 52.5558 160.795 50.9998 160.889C49.4438 160.983 48.1048 159.798 48.0108 158.242C47.9168 156.686 49.1018 155.347 50.6578 155.253C52.2138 155.159 53.5518 156.344 53.6468 157.9Z" fill="white"/>
<path opacity="0.42" d="M76.4518 146.065C76.5458 147.621 75.3608 148.96 73.8048 149.054C72.2488 149.148 70.9098 147.963 70.8158 146.407C70.7218 144.851 71.9068 143.512 73.4628 143.418C75.0188 143.323 76.3568 144.508 76.4518 146.065Z" fill="white"/>
<path opacity="0.42" d="M100.599 145.461C100.693 147.017 99.5078 148.356 97.9518 148.45C96.3958 148.544 95.0568 147.359 94.9628 145.803C94.8688 144.247 96.0538 142.908 97.6098 142.814C99.1658 142.72 100.504 143.905 100.599 145.461Z" fill="white"/>
<path opacity="0.42" d="M46.5618 179.287C46.6558 180.843 45.4708 182.182 43.9148 182.276C42.3588 182.37 41.0198 181.185 40.9258 179.629C40.8318 178.073 42.0169 176.734 43.5729 176.64C45.1289 176.546 46.4668 177.731 46.5618 179.287Z" fill="white"/>
<path opacity="0.42" d="M66.5729 192.096C66.6669 193.652 65.4818 194.991 63.9258 195.085C62.3698 195.179 61.0308 193.994 60.9368 192.438C60.8428 190.882 62.0278 189.543 63.5838 189.449C65.1398 189.355 66.4779 190.54 66.5729 192.096Z" fill="white"/>
<path d="M133.427 134.653C133.427 134.653 142.637 129.619 143.227 121.839C143.19 117.241 141.193 113.468 141.193 113.468L139.932 118.206C139.932 118.206 139.239 110.763 133.924 107.167C128.609 103.571 129.917 104.581 129.917 104.581C129.917 104.581 134.38 110.504 129.426 120.326C124.472 130.148 130.724 133.553 130.724 133.553L133.427 134.653Z" fill="#6A1CB9"/>
<path d="M132.858 131.464C132.858 131.464 131.192 122.922 134.999 118.332C130.05 124.606 129.028 129.647 130.271 133.72C132.858 131.464 132.858 131.464 132.858 131.464Z" fill="#3E0970"/>
<path d="M128.409 133.152C129.22 131.51 131.161 130.773 132.858 131.464L132.888 131.476L132.918 131.488C134.614 132.179 135.489 134.062 134.922 135.804L128.866 154.409L124.306 152.552L119.746 150.695L128.409 133.152Z" fill="white"/>
<path d="M119.041 154.854L126.756 157.995C127.796 158.419 128.983 157.919 129.407 156.878L129.425 156.833C129.849 155.792 129.349 154.606 128.308 154.182L120.593 151.041C119.553 150.617 118.366 151.117 117.942 152.158L117.924 152.203C117.501 153.243 118.001 154.43 119.041 154.854Z" fill="#CCCCCC"/>
<path d="M119.66 155.105L122.899 156.423L126.138 157.742C126.138 157.742 128.596 158.323 121.003 174.95C115.36 187.308 100.845 218.302 92.4808 234.862C91.6988 236.411 89.3528 235.456 89.8748 233.801C95.4568 216.108 106.72 183.79 111.314 171.005C117.495 153.804 119.66 155.105 119.66 155.105Z" fill="#2F2F35"/>
<path d="M102.385 214.619C98.7698 222.157 95.2798 229.32 92.4798 234.863C91.6978 236.412 89.3518 235.457 89.8738 233.802C91.7428 227.879 94.2488 220.316 96.9268 212.396L102.385 214.619Z" fill="white"/>
<path opacity="0.75" d="M101.243 199.756C113.143 185.027 117.617 156.97 117.637 156.848C116.316 158.772 114.278 162.76 111.314 171.007C109.069 177.254 105.232 188.166 101.243 199.756Z" fill="white"/>
<path d="M331.635 165.214L333.743 169.486L338.457 170.171L335.046 173.496L335.851 178.192L331.635 175.975L327.418 178.192L328.224 173.496L324.813 170.171L329.527 169.486L331.635 165.214Z" fill="#9E9E9E"/>
<path d="M392.332 159.246L395.276 165.211L401.859 166.168L397.096 170.811L398.22 177.367L392.332 174.272L386.445 177.367L387.569 170.811L382.806 166.168L389.389 165.211L392.332 159.246Z" fill="#666666"/>
<path d="M373.911 248.639L375.554 251.968L379.229 252.502L376.57 255.094L377.198 258.753L373.911 257.025L370.625 258.753L371.252 255.094L368.593 252.502L372.268 251.968L373.911 248.639Z" fill="#9E9E9E"/>
<path d="M315.286 226.084L318.23 232.049L324.812 233.005L320.049 237.648L321.174 244.204L315.286 241.109L309.398 244.204L310.523 237.648L305.759 233.005L312.342 232.049L315.286 226.084Z" fill="#666666"/>
<path d="M371.735 240.18C388.564 233.432 396.736 214.319 389.987 197.489C383.239 180.66 364.126 172.488 347.297 179.236C330.467 185.985 322.295 205.098 329.044 221.927C335.792 238.756 354.905 246.929 371.735 240.18Z" fill="#6A1CB9"/>
<path d="M350.672 241.323C362.269 244.559 374.144 241.14 382.245 233.368C376.759 234.838 370.821 234.91 364.954 233.273C347.49 228.4 337.283 210.293 342.156 192.829C343.793 186.962 346.929 181.919 351.027 177.987C340.184 180.893 331.11 189.283 327.874 200.88C323.002 218.343 333.209 236.45 350.672 241.323Z" fill="#3E0970"/>
<path opacity="0.52" d="M368.319 178.082C366.684 177.626 365.042 177.302 363.407 177.103C362.551 180.173 362.084 183.404 362.084 186.747C362.084 203.836 374.048 218.121 390.054 221.709C390.458 220.677 390.814 219.616 391.118 218.526C395.989 201.062 385.782 182.954 368.319 178.082Z" fill="#FFF6E7"/>
<path d="M326.78 207.001C314.044 202.039 306.122 197.55 306.788 195.165C307.895 191.197 332.343 194.552 361.394 202.658C390.445 210.764 413.097 220.552 411.99 224.52C411.327 226.898 402.283 226.646 388.889 224.318" stroke="#666666" stroke-width="2" stroke-miterlimit="10"/>
</svg>
