<svg width="65" height="59" viewBox="0 0 65 59" fill="none" xmlns="http://www.w3.org/2000/svg">
<path d="M6.17617 51.2684C8.518 54.2648 11.8614 53.809 15.2653 52.1142C17.5417 51.1022 19.71 49.4469 21.7319 47.9399C26.1067 44.6825 30.4379 41.3621 34.7076 37.9655C37.9264 35.4046 41.0925 32.7812 44.2298 30.125C44.813 29.6616 45.4008 29.2039 45.9815 28.7403C49.5581 25.8908 53.062 22.96 56.2885 19.7371C58.7451 17.2844 62.3672 14.0458 61.5893 10.8991C60.9265 8.22214 58.9955 5.37053 56.3773 4.32648C53.7344 3.27202 50.4496 4.04934 47.4925 5.77134C44.1795 7.70328 41.2965 10.3738 38.3676 12.8456C34.5566 16.0614 30.7482 19.2775 26.9373 22.4934C23.2428 25.6105 19.547 28.7289 15.8534 31.85C14.3107 33.1525 12.7429 34.4729 11.2918 35.886C10.8667 36.2358 10.4371 36.5799 10.0191 36.9357C7.41861 39.152 4.90319 41.9368 4.37706 45.0149C4.09001 46.6934 4.34363 48.2697 5.12461 49.458C5.40673 50.1291 5.76723 50.744 6.17617 51.2684Z" fill="#6A1CB9"/>
<path d="M4.90517 7.48877C2.39494 10.3456 3.46274 13.5465 5.75929 16.5771C7.17578 18.6264 9.20445 20.4502 11.0601 22.1576C15.0723 25.8526 19.1381 29.4931 23.2675 33.0589C26.3808 35.7471 29.5457 38.3719 32.7376 40.9623C33.3011 41.4495 33.8598 41.9422 34.4231 42.4269C37.8863 45.4132 41.416 48.3129 45.1812 50.8859C48.0468 52.8451 51.9009 55.804 54.8488 54.4561C57.3564 53.3084 59.8006 50.8822 60.3411 48.1158C60.8872 45.3233 59.5143 42.2395 57.2739 39.6529C54.7612 36.7556 51.6024 34.4177 48.6304 31.9979C44.7638 28.8493 40.8973 25.7032 37.0306 22.5546C33.2825 19.5022 29.533 16.4486 25.7811 13.3978C24.2152 12.1234 22.627 10.8276 20.9694 9.66359C20.5468 9.31074 20.1289 8.95236 19.7019 8.60761C17.0418 6.46312 13.8389 4.50767 10.7167 4.56138C9.014 4.59053 7.51207 5.13201 6.48915 6.11978C5.88204 6.52143 5.34469 6.98968 4.90517 7.48877Z" fill="#6A1CB9"/>
<path d="M18.109 11.0294C16.5399 9.71404 14.7066 8.59375 12.6584 8.24972C10.8425 7.94382 8.89989 8.26022 7.38461 9.34405C6.43368 10.0232 7.45225 11.5282 8.40436 10.8477C11.1754 8.86702 14.6366 10.4912 16.9308 12.4124C17.826 13.163 19.0069 11.7825 18.109 11.0294Z" fill="black"/>
<path d="M56.3382 10.7271C57.0319 12.1632 56.4019 13.7262 55.518 14.9222C54.3546 16.4953 52.8456 17.8453 51.4875 19.2464C51.1461 19.5987 51.0154 20.1079 51.3507 20.5237C51.6301 20.8702 52.2838 21.0151 52.628 20.6605C53.4633 19.7978 54.2998 18.9365 55.1351 18.0738C55.9038 17.2789 56.6883 16.4805 57.2955 15.5519C58.3571 13.9279 58.8882 11.8285 58.0063 10.0027C57.4973 8.95204 55.8296 9.67391 56.3382 10.7271Z" fill="black"/>
<path d="M51.9911 44.7778C49.4877 43.5007 47.443 41.7638 45.2074 39.9403C42.8442 38.0115 40.5051 36.0531 38.1904 34.0678C37.1085 33.1407 35.2944 33.1093 34.3415 34.2659C33.4214 35.3835 33.3809 37.1208 34.5396 38.1147C36.9458 40.1777 39.3763 42.2137 41.8345 44.2135C44.2713 46.1965 46.7344 48.2154 49.5456 49.6503C50.8561 50.3187 52.5464 49.7442 53.2046 48.4368C53.8734 47.1096 53.3068 45.4485 51.9911 44.7778Z" fill="white"/>
</svg>
