<svg width="160" height="160" viewBox="0 0 160 160" fill="none" xmlns="http://www.w3.org/2000/svg">
<path d="M160 81.7777C160 75.2 159.455 70.4 158.277 65.4223H81.6327V95.1108H126.621C125.714 102.489 120.816 113.6 109.932 121.066L109.779 122.06L134.013 140.458L135.692 140.622C151.111 126.667 160 106.133 160 81.7777Z" fill="#4285F4"/>
<path d="M81.6327 160C103.673 160 122.176 152.889 135.692 140.622L109.932 121.066C103.038 125.777 93.7866 129.066 81.6327 129.066C60.0455 129.066 41.7236 115.111 35.1924 95.8223L34.2351 95.902L9.03681 115.013L8.70728 115.911C22.1312 142.044 49.7049 160 81.6327 160Z" fill="#34A853"/>
<path d="M35.1924 95.8223C33.4691 90.8446 32.4717 85.5108 32.4717 80C32.4717 74.4886 33.4691 69.1554 35.1017 64.1777L35.0561 63.1176L9.54205 43.6994L8.70727 44.0885C3.17464 54.9331 0 67.1111 0 80C0 92.8889 3.17464 105.066 8.70727 115.911L35.1924 95.8223Z" fill="#FBBC05"/>
<path d="M81.6326 30.9331C96.9612 30.9331 107.301 37.422 113.197 42.8446L136.236 20.8C122.086 7.91114 103.673 0 81.6326 0C49.7049 0 22.1312 17.9554 8.70728 44.0885L35.1017 64.1777C41.7236 44.8889 60.0455 30.9331 81.6326 30.9331Z" fill="#EB4335"/>
</svg>
