<svg width="202" height="102" viewBox="0 0 202 102" fill="none" xmlns="http://www.w3.org/2000/svg">
<path d="M116.518 5.03607C115.573 0.198086 104.87 -0.586111 103.305 4.3043C99.6493 15.7267 96.7198 31.2655 76.1524 58.7444C68.7346 47.5589 60.8252 36.6327 52.4483 25.9988C46.3135 18.21 38.4025 2.63466 26.2998 2.68709C7.48776 2.76895 1.00565 0.977961 1 7.58899C0.993557 15.8747 8.55401 20.7766 10.6978 44.4681C12.2355 61.4596 8.20182 79.4529 5.3867 86.1702C4.06094 89.3321 1 92.3711 1 95.9129C1 98.8565 3.04466 100.819 6.34898 100.819C37.8593 100.819 43.0068 102.451 43.0068 95.9129C43.0068 85.5353 23.3219 85.2316 22.6707 32.3979C22.6409 30.0037 24.7798 30.3613 25.585 30.9696C30.6712 34.8115 30.3915 38.1135 44.6646 56.8801C52.7529 67.5148 62.2275 87.2983 67.2299 88.2333C78.5645 90.3496 118.599 15.6837 116.518 5.03607Z" fill="#6A1CB9" stroke="black" stroke-width="2" stroke-miterlimit="10" stroke-linecap="round" stroke-linejoin="round"/>
<path opacity="0.2" d="M111.133 9.74048C105.906 17.8351 105.41 21.7819 90.8631 46.5449C90.7873 46.6742 62.919 91.7255 70.3852 83.5232C85.7382 66.6516 111.164 20.0728 114.499 11.0051C115.155 9.22127 112.164 8.14409 111.133 9.74048Z" fill="#6A1CB9"/>
<path opacity="0.2" d="M33.2091 83.3465C19.0699 66.0987 25.0765 52.2483 20.0539 35.6625C18.2833 29.8127 16.6811 67.2699 25.6455 81.9648C28.575 86.7669 33.6234 90.8336 34.4052 96.4939C35.0064 100.852 47.7401 101.071 33.2091 83.3465Z" fill="#6A1CB9"/>
<path opacity="0.1" d="M14.8758 58.7566C14.2907 55.9466 14.6735 67.5687 11.3587 78.0496C9.44867 84.0891 6.49896 89.5367 4.1948 95.4117C3.30909 97.6694 6.91886 98.6964 8.28572 96.9485C14.1062 89.5073 18.0858 74.1 14.8758 58.7566Z" fill="white"/>
<path opacity="0.1" d="M27.1784 6.87518C22.0647 4.99513 14.9677 5.43176 9.48414 5.3779C-6.04375 5.22566 11.7367 23.6699 13.4606 34.8676C13.5525 35.4672 14.6356 35.3114 14.6292 34.7268C14.5285 25.3208 7.11469 14.0413 7.37581 11.0503C7.78442 6.3804 18.7918 11.7656 27.1784 9.94299C29.061 9.53366 28.6718 7.42454 27.1784 6.87518Z" fill="white"/>
<path opacity="0.1" d="M64.5186 74.4569C64.127 71.7352 63.5161 71.5004 55.5664 59.7814C39.6605 36.3347 36.61 24.895 25.1456 20.8448C22.3434 19.8552 30.1674 25.8178 34.8845 33.8952C36.4271 36.5372 54.3502 71.886 61.7906 75.8522C62.86 76.4217 64.6992 75.7093 64.5186 74.4569Z" fill="white"/>
<path opacity="0.1" d="M106.249 2.89534C100.165 15.4977 97.7368 28.0655 88.1583 45.4397C86.723 48.0429 77.1944 61.5975 80.2763 58.9052C89.7944 50.5944 105.025 14.3781 108.321 3.67378C108.648 2.60809 106.77 1.81672 106.249 2.89534Z" fill="white"/>
<path d="M164.524 10.2453C166.818 14.7142 175.133 22.1108 164.807 44.7597C160.405 54.4148 155.23 64.1705 149.372 73.1844C148.226 71.6023 148.035 69.6368 147.876 67.759C146.883 56.0335 144.226 44.4042 143.922 32.645C143.093 0.494672 147.625 3.28098 132.416 2.32659C129.931 2.17076 127.68 2.65908 126.952 5.68812C122.189 25.4853 107.222 56.5125 84.6993 83.5066C72.9883 97.543 90.2618 102.801 98.0141 90.1392C98.0141 90.1392 121.873 54.0163 121.874 54.0184C123.631 60.7286 129.657 100.306 142.821 97.263C155.066 94.4314 182.003 49.1302 187.045 39.6574C190.415 33.3272 206.742 14.5785 198.887 7.37212C193.901 2.7984 157.772 -2.91138 164.524 10.2453Z" fill="#D578CD" stroke="black" stroke-width="2" stroke-miterlimit="10" stroke-linecap="round" stroke-linejoin="round"/>
<path opacity="0.2" d="M118.916 51.0791C116.166 53.8777 114.585 57.6306 112.576 60.8772C110.346 64.4793 107.997 68.0167 105.591 71.5269C103.313 74.8497 101.006 78.1516 98.5839 81.3925C95.9428 84.9264 93.1769 90.0566 89.202 92.4415C89.1246 92.4882 89.1295 92.6038 89.2294 92.6261C92.4233 93.3363 94.5284 89.8634 96.2249 87.9446C99.443 84.3052 102.463 80.5092 105.398 76.6859C108.418 72.7521 111.237 68.7069 113.934 64.5913C116.455 60.7429 119.909 56.5426 121.001 52.1592C121.251 51.1509 119.787 50.1923 118.916 51.0791Z" fill="#D578CD"/>
<path opacity="0.2" d="M146.278 72.4641C145.801 69.7302 144.62 67.0983 144.046 64.3616C143.459 61.5666 143.155 58.7329 142.921 55.8992C142.457 50.3158 142.355 44.7044 142.136 39.1102C141.917 33.5297 141.648 27.9557 141.326 22.3794C141.006 16.8219 141.195 10.9778 139.809 5.53448C139.707 5.13592 138.964 5.11438 138.88 5.53448C137.783 11.0166 138.261 16.8277 138.228 22.3794C138.191 28.6558 138.233 34.9258 138.312 41.2021C138.385 46.955 138.278 52.7481 138.81 58.4859C139.271 63.4374 139.815 69.4789 142.86 73.7481C144.055 75.4242 146.595 74.2788 146.278 72.4641Z" fill="#D578CD"/>
<path opacity="0.2" d="M196.491 8.99866C195.647 7.22131 192.136 7.68451 191.779 9.54731C191.413 11.4561 191.768 13.2449 191.588 15.1659C191.38 17.3928 190.642 19.6405 189.738 21.7101C188.059 25.5528 185.809 29.2353 183.742 32.9207C179.4 40.6621 174.878 48.323 170.196 55.9056C165.638 63.2858 160.92 70.5855 156.065 77.8141C154.016 80.8668 152.091 84.0273 149.737 86.907C148.445 88.4883 146.968 90.01 145.272 91.2617C143.577 92.5119 141.535 93.0167 139.802 94.1586C139.524 94.341 139.485 94.8293 139.91 94.8968C146.588 95.9639 152.327 87.9353 155.388 83.7867C161.42 75.6116 167.029 67.1672 172.52 58.697C178.013 50.2231 183.301 41.643 188.394 32.9732C192.127 26.6214 200.019 16.4298 196.491 8.99866Z" fill="#D578CD"/>
<path opacity="0.1" d="M130.144 8.24103C125.133 19.1874 126.148 25.8487 113.334 48.3625C109.737 54.682 84.6251 92.0832 90.5173 85.6646C104.084 70.8907 118.869 46.5298 126.378 29.3926C136.497 6.30067 131.043 6.27913 130.144 8.24103Z" fill="white"/>
<path opacity="0.1" d="M172.535 4.27412C170.331 2.71867 167.023 4.10823 167.704 6.77964C168.827 11.186 178.46 19.797 168.882 42.1335C163.233 55.3081 145.089 84.2111 150.11 78.2385C164.176 61.5113 190.923 17.2513 172.535 4.27412Z" fill="white"/>
</svg>
