<svg width="202" height="102" viewBox="0 0 202 102" fill="none" xmlns="http://www.w3.org/2000/svg">
<path d="M116.518 5.03607C115.573 0.198086 104.87 -0.586111 103.305 4.3043C99.6493 15.7267 96.7198 31.2655 76.1524 58.7444C68.7346 47.5589 60.8252 36.6327 52.4483 25.9988C46.3135 18.21 38.4025 2.63466 26.2998 2.68709C7.48776 2.76895 1.00565 0.977961 1 7.58899C0.993557 15.8747 8.55401 20.7766 10.6978 44.4681C12.2355 61.4596 8.20182 79.4529 5.3867 86.1702C4.06094 89.3321 1 92.3711 1 95.9129C1 98.8565 3.04466 100.819 6.34898 100.819C37.8593 100.819 43.0068 102.451 43.0068 95.9129C43.0068 85.5353 23.3219 85.2316 22.6707 32.3979C22.6409 30.0037 24.7798 30.3613 25.585 30.9696C30.6712 34.8115 30.3915 38.1135 44.6646 56.8801C52.7529 67.5148 62.2275 87.2983 67.2299 88.2333C78.5645 90.3496 118.599 15.6837 116.518 5.03607Z" fill="#6A1CB9" stroke="white" stroke-width="2" stroke-miterlimit="10" stroke-linecap="round" stroke-linejoin="round"/>
<path opacity="0.2" d="M111.553 10.0118C111.9 9.47483 112.619 9.33265 113.276 9.57434C113.593 9.69122 113.838 9.88254 113.971 10.0958C114.094 10.2936 114.14 10.5338 114.03 10.8322C112.38 15.3184 105.212 29.1943 96.5168 44.0861C87.8379 58.9498 77.6847 74.7418 70.0519 83.1447C70.2603 82.6767 70.5359 82.1072 70.8703 81.4503C72.4263 78.3937 75.2048 73.5396 78.2267 68.4122C81.2466 63.2884 84.5029 57.9037 87.0089 53.7911C88.2595 51.739 89.325 49.9994 90.0812 48.7687L91.2941 46.798C98.573 34.4074 102.339 27.2213 104.939 22.1193C107.54 17.0145 108.957 14.0322 111.553 10.0118Z" fill="#6A1CB9" stroke="white"/>
<path opacity="0.2" d="M19.7007 36.2363C20.8542 40.1837 21.3918 43.9825 21.7418 47.7314C22.1017 51.5871 22.27 55.4722 22.7164 59.3144C23.6176 67.0716 25.6761 74.946 32.8228 83.664C36.4388 88.0748 38.3268 91.3317 39.1392 93.6562C39.9578 95.998 39.6473 97.2646 39.1089 97.8681C38.5678 98.4745 37.6136 98.6145 36.6763 98.2968C35.7409 97.9796 35.0174 97.2694 34.9009 96.4257C34.4924 93.4676 32.9715 90.952 31.232 88.6093C29.4642 86.2286 27.5234 84.0834 26.0718 81.704C23.8763 78.1047 22.3094 73.0759 21.231 67.6113C20.1543 62.1551 19.5723 56.3036 19.3238 51.0859C19.0752 45.8664 19.1619 41.297 19.4185 38.4072C19.5008 37.4801 19.5982 36.7517 19.7007 36.2363Z" fill="#6A1CB9" stroke="white"/>
<path opacity="0.1" d="M14.8398 61.3267C17.1367 75.7091 13.2975 89.7289 7.8916 96.6402C7.37424 97.3018 6.377 97.4816 5.55371 97.2076C5.15305 97.0742 4.85363 96.8504 4.69531 96.5904C4.54799 96.3483 4.49093 96.0257 4.66016 95.5943C5.80697 92.6702 7.11303 89.8563 8.38184 86.9947C9.64748 84.1402 10.8722 81.2479 11.8359 78.2007C13.509 72.9108 14.2458 67.344 14.6387 63.4693C14.7195 62.6721 14.7839 61.955 14.8398 61.3267Z" fill="white" stroke="white"/>
<path opacity="0.1" d="M9.479 5.87819C12.2515 5.90542 15.3577 5.80942 18.4487 5.94167C21.5314 6.07356 24.5221 6.43114 27.0054 7.34401C27.576 7.55394 27.9124 8.05571 27.9458 8.49928C27.9619 8.71365 27.908 8.90676 27.7876 9.06178C27.6675 9.21637 27.4501 9.37211 27.0718 9.45436C22.9879 10.3418 18.251 9.47493 14.354 8.93385C12.442 8.66839 10.6936 8.47665 9.39014 8.6692C8.73184 8.76647 8.1319 8.96822 7.67627 9.35573C7.20563 9.75609 6.93826 10.312 6.87744 11.0071C6.83647 11.4771 6.94681 12.0542 7.12842 12.6799C7.31353 13.3177 7.58927 14.0594 7.92139 14.8772C8.57877 16.496 9.50159 18.5211 10.4058 20.676C12.2353 25.0363 14.0721 30.116 14.1284 34.7044C14.1081 34.7185 14.0695 34.7383 14.0161 34.7454C13.9893 34.7489 13.9656 34.7479 13.9468 34.7454C13.494 31.8704 12.0321 28.5727 10.3745 25.2893C8.69015 21.9529 6.81429 18.6465 5.4585 15.6594C4.78428 14.174 4.25306 12.7968 3.94971 11.5696C3.64502 10.3369 3.58147 9.29927 3.79639 8.47292C4.0047 7.67212 4.48216 7.03495 5.354 6.58717C6.24855 6.12789 7.57734 5.85957 9.479 5.87819Z" fill="white" stroke="white"/>
<path opacity="0.1" d="M25.6791 21.5782C30.8601 23.6122 34.2871 27.3162 38.2738 33.3165C40.3586 36.4542 42.5817 40.1949 45.2885 44.6358C47.9921 49.0716 51.1698 54.1905 55.1527 60.0616C59.1388 65.9377 61.2638 68.9048 62.4554 70.7628C63.0478 71.6864 63.3898 72.3066 63.6088 72.8506C63.8244 73.3865 63.9288 73.868 64.0238 74.5284C64.0701 74.8499 63.8749 75.1709 63.4135 75.3839C63.0084 75.5707 62.5301 75.6009 62.1713 75.4747L62.0258 75.4112C61.1766 74.9585 60.1308 74.0275 58.9349 72.6866C57.7474 71.3551 56.443 69.6552 55.0736 67.7071C52.3352 63.8116 49.357 58.9528 46.558 54.126C43.7601 49.3012 41.1454 44.5166 39.1332 40.7715C37.1289 37.0411 35.7086 34.3149 35.3168 33.6436V33.6426C32.9288 29.5536 29.7606 26.0101 27.5629 23.6309C26.7759 22.779 26.1299 22.0912 25.6791 21.5782Z" fill="white" stroke="white"/>
<path opacity="0.1" d="M106.959 2.89751C107.084 2.86656 107.249 2.87816 107.418 2.94536C107.797 3.09588 107.895 3.35524 107.843 3.52641C106.205 8.8472 101.584 20.5544 96.1801 31.9737C93.4794 37.6808 90.5875 43.3059 87.7807 48.0186C85.4056 52.0065 83.1081 55.3055 81.0581 57.4541C81.5554 56.6123 82.2136 55.5621 82.9438 54.4288C85.1012 51.0807 87.8678 47.0016 88.5962 45.6807C93.4022 36.9631 96.4141 29.4521 98.9829 22.5528C101.555 15.6453 103.671 9.38599 106.7 3.11235C106.761 2.98562 106.85 2.92487 106.959 2.89751Z" fill="white" stroke="white"/>
<path d="M164.524 10.2453C166.818 14.7142 175.133 22.1108 164.807 44.7597C160.405 54.4148 155.23 64.1705 149.372 73.1844C148.226 71.6023 148.035 69.6369 147.876 67.759C146.883 56.0335 144.226 44.4042 143.922 32.645C143.093 0.494672 147.625 3.28098 132.416 2.32659C129.931 2.17076 127.68 2.65908 126.952 5.68812C122.189 25.4853 107.222 56.5125 84.6993 83.5066C72.9883 97.543 90.2618 102.801 98.0141 90.1392C98.0141 90.1392 121.873 54.0163 121.874 54.0184C123.631 60.7286 129.657 100.306 142.821 97.263C155.066 94.4314 182.003 49.1302 187.045 39.6574C190.415 33.3272 206.742 14.5785 198.887 7.37212C193.901 2.7984 157.772 -2.91138 164.524 10.2453Z" fill="#D578CD" stroke="white" stroke-width="2" stroke-miterlimit="10" stroke-linecap="round" stroke-linejoin="round"/>
<path opacity="0.2" d="M119.273 51.43C119.514 51.1846 119.837 51.1736 120.13 51.3421C120.445 51.5229 120.571 51.816 120.516 52.0384C119.989 54.1525 118.887 56.2452 117.581 58.3089C116.93 59.3387 116.233 60.3536 115.537 61.3567C114.844 62.3571 114.151 63.3487 113.516 64.3177C110.824 68.4253 108.012 72.4593 105.001 76.3811C102.069 80.2003 99.0579 83.9866 95.8508 87.6136H95.8499C95.4204 88.0994 94.9508 88.7005 94.4807 89.2659C93.9996 89.8446 93.4963 90.4139 92.9553 90.8987C92.1815 91.5921 91.3658 92.08 90.4641 92.1927C92.1003 90.9765 93.518 89.3462 94.7932 87.6477C95.5601 86.6264 96.2836 85.5703 96.9758 84.5559C97.6706 83.5379 98.3322 82.5646 98.9846 81.6917C101.412 78.4428 103.724 75.1346 106.003 71.8098C108.412 68.2958 110.766 64.7508 113.001 61.1399C114.004 59.5202 114.935 57.7137 115.9 56.0628C116.882 54.3819 117.941 52.7855 119.273 51.43Z" fill="#D578CD" stroke="white"/>
<path opacity="0.2" d="M139.346 5.75185C140.691 11.1061 140.504 16.8203 140.827 22.4081C141.148 27.9812 141.418 33.5523 141.636 39.1298C141.855 44.7099 141.958 50.3425 142.423 55.9403C142.658 58.7802 142.963 61.639 143.556 64.4647C143.85 65.8631 144.298 67.2319 144.722 68.5653C145.15 69.9089 145.554 71.2204 145.786 72.5497C146 73.7742 144.282 74.6656 143.354 73.5702L143.267 73.4579C140.316 69.3196 139.772 63.4276 139.308 58.4393C138.778 52.7282 138.885 46.9699 138.812 41.1962C138.732 34.9219 138.691 28.6549 138.728 22.3827C138.761 16.8104 138.293 11.1357 139.346 5.75185Z" fill="#D578CD" stroke="white"/>
<path opacity="0.2" d="M194.014 8.4043C194.943 8.29014 195.751 8.60637 196.039 9.21289C197.701 12.7119 196.701 16.9313 194.713 21.1787C192.975 24.8932 190.563 28.4711 188.716 31.4707L187.963 32.7197C182.874 41.3834 177.59 49.9574 172.101 58.4248C166.611 66.8927 161.009 75.3276 154.985 83.4902C153.448 85.5741 151.277 88.5746 148.67 90.9268C146.136 93.2121 143.287 94.7958 140.286 94.4434C141.055 93.9662 141.885 93.6008 142.757 93.2061C143.694 92.7814 144.674 92.3241 145.568 91.6641C147.308 90.3807 148.815 88.8265 150.124 87.2236C152.497 84.3197 154.447 81.1212 156.481 78.0928C161.338 70.8594 166.06 63.5539 170.621 56.168C175.307 48.5798 179.833 40.9127 184.178 33.165C186.232 29.5024 188.504 25.7829 190.196 21.9102C191.112 19.8149 191.87 17.5128 192.086 15.2129C192.179 14.2157 192.134 13.2495 192.113 12.3408C192.093 11.4197 192.097 10.5404 192.27 9.6416C192.388 9.0232 193.079 8.51926 194.014 8.4043Z" fill="#D578CD" stroke="white"/>
<path opacity="0.1" d="M131.268 7.96306C131.383 7.98382 131.792 8.17781 131.894 9.46111C131.993 10.698 131.771 12.7382 130.88 15.9357C129.991 19.1244 128.443 23.4322 125.92 29.1916C118.646 45.7918 104.524 69.1912 91.3319 84.0158C91.3938 83.9089 91.4564 83.7984 91.5224 83.6857C93.0982 80.9935 95.7918 76.7307 98.788 72.0607C104.768 62.74 111.961 51.7846 113.768 48.6095C120.191 37.3262 123.154 30.0034 125.139 24.1242C127.13 18.2245 128.107 13.8921 130.599 8.44939C130.766 8.08323 131.093 7.93126 131.268 7.96306Z" fill="white" stroke="white"/>
<path opacity="0.1" d="M169.254 4.39282C170.113 3.98166 171.297 4.01314 172.246 4.68286H172.247C176.66 7.79758 178.405 12.8054 178.266 18.9426C178.127 25.0886 176.094 32.2944 173.031 39.6584C167.282 53.482 157.962 67.7286 151.046 76.3137C152.177 74.2144 153.924 71.1453 155.929 67.6135C160.538 59.4981 166.503 48.9495 169.341 42.3303C174.166 31.0783 174.173 23.2302 172.792 17.6135C172.103 14.8122 171.074 12.5854 170.154 10.7932C169.684 9.87793 169.273 9.13181 168.917 8.4231C168.567 7.7275 168.314 7.15169 168.188 6.65649C168.046 6.09874 168.117 5.63702 168.305 5.27173C168.497 4.90089 168.828 4.59658 169.254 4.39282Z" fill="white" stroke="white"/>
</svg>
