<svg width="66" height="60" viewBox="0 0 66 60" fill="none" xmlns="http://www.w3.org/2000/svg">
<g clip-path="url(#clip0_486_8)">
<path d="M65.8358 7.50031C65.8902 3.94258 63.1874 2.31075 59.713 1.54583C57.4607 0.94579 54.9093 0.877797 52.5516 0.787706C47.4522 0.590526 42.3476 0.464741 37.243 0.430744C33.3946 0.405247 29.5479 0.456241 25.7029 0.548031C25.006 0.542932 24.3091 0.531033 23.6138 0.527633C19.3354 0.502136 15.062 0.578629 10.8193 1.03078C7.58961 1.37415 3.04938 1.60532 1.76772 4.35394C0.678129 6.69289 0.409558 9.90386 1.70312 12.202C3.00859 14.5223 5.85749 15.8855 9.02256 16.3683C12.5701 16.9071 16.2383 16.6556 19.8232 16.5757C24.4876 16.472 29.1502 16.3666 33.8145 16.2629C38.336 16.1626 42.8593 16.0623 47.3825 15.9586C49.271 15.9161 51.1884 15.8753 53.0752 15.6986C53.5902 15.6935 54.1053 15.6952 54.6186 15.6816C57.8143 15.5949 61.2819 15.0441 63.473 13.1114C64.668 12.0575 65.4091 10.7606 65.5383 9.43641C65.727 8.78198 65.8256 8.12244 65.8358 7.50031Z" fill="#6A1CB9"/>
<path d="M65.8358 49.9959C65.8902 46.4382 63.1874 44.8064 59.713 44.0414C57.4607 43.4414 54.9093 43.3734 52.5516 43.2833C47.4522 43.0861 42.3476 42.9603 37.243 42.9263C33.3946 42.9009 29.5479 42.9518 25.7029 43.0436C25.006 43.0385 24.3091 43.0266 23.6138 43.0232C19.3354 42.9977 15.062 43.0742 10.8193 43.5264C7.58961 43.8697 3.04938 44.1009 1.76772 46.8495C0.678129 49.1885 0.409558 52.3995 1.70312 54.6976C3.00859 57.0179 5.85749 58.3811 9.02256 58.8639C12.5701 59.4027 16.2383 59.1512 19.8232 59.0713C24.4876 58.9676 29.1502 58.8622 33.8145 58.7585C38.336 58.6582 42.8593 58.5579 47.3825 58.4542C49.271 58.4117 51.1884 58.3709 53.0752 58.1942C53.5902 58.1891 54.1053 58.1908 54.6186 58.1772C57.8143 58.0905 61.2819 57.5397 63.473 55.607C64.668 54.5531 65.4091 53.2562 65.5383 51.932C65.727 51.2776 65.8256 50.6181 65.8358 49.9959Z" fill="#6A1CB9"/>
<path d="M0.83772 30.023C0.783326 33.5807 3.48774 35.2108 6.96048 35.9774C9.21275 36.5775 11.7642 36.6455 14.1218 36.7356C19.2213 36.9327 24.3259 37.0585 29.4305 37.0925C33.2789 37.118 37.1256 37.067 40.9706 36.9752C41.6675 36.9803 42.3644 36.9922 43.0596 36.9956C47.3381 37.0211 51.6115 36.9446 55.8542 36.4925C59.0839 36.1491 63.6241 35.9179 64.9058 33.1693C65.9954 30.8304 66.2639 27.6194 64.9704 25.3212C63.6649 23.001 60.816 21.6377 57.6509 21.155C54.1034 20.6161 50.4352 20.8677 46.8502 20.9476C42.1859 21.0513 37.5233 21.1567 32.859 21.2604C28.3375 21.3607 23.8142 21.4609 19.291 21.5646C17.4025 21.6071 15.4851 21.6479 13.5983 21.8247C13.0833 21.8298 12.5682 21.8281 12.0549 21.8417C8.85919 21.9284 5.39155 22.4791 3.20047 24.4118C2.0055 25.4657 1.26438 26.7627 1.13519 28.0869C0.946509 28.7396 0.847919 29.3991 0.83772 30.023Z" fill="#6A1CB9"/>
<path d="M8.89324 30.5396C11.4328 29.858 13.9417 29.7832 16.6376 29.6489C19.4882 29.5078 22.3405 29.4025 25.1928 29.3311C26.5255 29.2971 27.8055 28.182 27.7426 26.7813C27.6814 25.4283 26.6207 24.1959 25.1928 24.2316C22.2284 24.3064 19.2639 24.4152 16.3028 24.5665C13.3672 24.716 10.3908 24.8571 7.53848 25.622C6.20922 25.979 5.395 27.4375 5.75706 28.7582C6.12423 30.0994 7.55888 30.8983 8.89324 30.5396Z" fill="white"/>
<path d="M54.2834 55.4862C56.1991 55.4709 58.1845 55.1565 59.852 54.1587C61.3309 53.2748 62.5225 51.8707 62.944 50.1794C63.2092 49.1187 61.5706 48.6648 61.3054 49.7272C60.5337 52.8192 57.083 53.7626 54.2834 53.7864C53.1904 53.7949 53.187 55.4947 54.2834 55.4862Z" fill="black"/>
<path d="M4.60447 7.88439C4.94273 6.43105 6.31959 5.66273 7.66585 5.31086C9.43707 4.84851 11.329 4.75162 13.141 4.52894C13.5965 4.47285 13.9909 4.17878 13.9909 3.67903C13.9909 3.26257 13.5999 2.77303 13.141 2.82912C12.0259 2.96681 10.9108 3.10279 9.79573 3.24048C8.76904 3.36796 7.72874 3.48865 6.74115 3.80822C5.01413 4.36746 3.39419 5.58453 2.96414 7.43224C2.71766 8.49633 4.35629 8.95018 4.60447 7.88439Z" fill="black"/>
</g>
<defs>
<clipPath id="clip0_486_8">
<rect width="66" height="60" fill="white"/>
</clipPath>
</defs>
</svg>
