<svg width="242" height="137" viewBox="0 0 242 137" fill="none" xmlns="http://www.w3.org/2000/svg">
<path d="M139.622 6.4346C138.488 -0.0808743 125.644 -1.13698 123.766 5.4491C119.379 20.8321 115.864 41.7586 91.1829 78.7654C82.2815 63.7015 72.7902 48.9868 62.738 34.6658C55.3763 24.1764 45.883 3.20055 31.3598 3.27115C8.78531 3.3814 1.00677 0.969409 1 9.8727C0.992268 21.0313 10.0648 27.6329 12.6373 59.5391C14.4826 82.4221 9.64219 106.654 6.26404 115.701C4.67313 119.959 1 124.052 1 128.822C1 132.786 3.45359 135.429 7.41878 135.429C45.2312 135.429 51.4082 137.626 51.4082 128.822C51.4082 114.846 27.7863 114.437 27.0049 43.2837C26.9691 40.0594 29.5358 40.541 30.502 41.3601C36.6054 46.5342 36.2699 50.981 53.3975 76.2547C63.1035 90.5768 74.473 117.22 80.4759 118.479C94.0774 121.329 142.119 20.7741 139.622 6.4346Z" fill="#6A1CB9" stroke="black" stroke-width="2" stroke-miterlimit="10" stroke-linecap="round" stroke-linejoin="round"/>
<path opacity="0.2" d="M133.16 12.7702C126.887 23.6716 126.292 28.9868 108.836 62.336C108.745 62.5101 75.3028 123.182 84.2621 112.136C102.686 89.4143 133.196 26.6851 137.199 14.4733C137.986 12.071 134.397 10.6203 133.16 12.7702Z" fill="#6A1CB9"/>
<path opacity="0.2" d="M39.6509 111.898C22.6838 88.6697 29.8917 70.0168 23.8647 47.6803C21.7399 39.8021 19.8173 90.247 30.5745 110.037C34.09 116.504 40.148 121.981 41.0862 129.604C41.8076 135.473 57.0881 135.768 39.6509 111.898Z" fill="#6A1CB9"/>
<path opacity="0.1" d="M17.6509 78.7818C16.9488 74.9975 17.4082 90.6493 13.4304 104.764C11.1383 112.898 7.5987 120.234 4.8337 128.146C3.77084 131.187 8.10257 132.57 9.7428 130.216C16.7273 120.195 21.503 99.4453 17.6509 78.7818Z" fill="white"/>
<path opacity="0.1" d="M32.4139 8.91139C26.2776 6.37948 17.7611 6.96749 11.1809 6.89496C-7.45261 6.68993 13.8839 31.5294 15.9526 46.6097C16.0629 47.4172 17.3627 47.2073 17.3549 46.4201C17.234 33.7528 8.33752 18.5623 8.65087 14.5342C9.1412 8.24506 22.3501 15.4975 32.4139 13.0429C34.6731 12.4917 34.206 9.65124 32.4139 8.91139Z" fill="white"/>
<path opacity="0.1" d="M77.2225 99.926C76.7525 96.2606 76.0194 95.9443 66.4798 80.1619C47.3927 48.5855 43.7322 33.1793 29.9749 27.7248C26.6122 26.3921 36.001 34.4221 41.6615 45.3002C43.5126 48.8582 65.0204 96.4637 73.9488 101.805C75.2322 102.572 77.4391 101.613 77.2225 99.926Z" fill="white"/>
<path opacity="0.1" d="M127.299 3.5516C119.998 20.5236 117.084 37.4491 105.59 60.8476C103.868 64.3534 92.4333 82.6077 96.1316 78.982C107.553 67.7895 125.83 19.0158 129.785 4.59996C130.178 3.16476 127.924 2.09899 127.299 3.5516Z" fill="white"/>
<path d="M197.229 13.4501C199.982 19.4685 209.959 29.4298 197.569 59.9317C192.286 72.9346 186.076 86.073 179.046 98.2122C177.671 96.0817 177.442 93.4347 177.252 90.9057C176.06 75.1145 172.871 59.453 172.507 43.6165C171.512 0.318564 176.95 4.07097 158.699 2.78567C155.718 2.57581 153.017 3.23345 152.142 7.31276C146.427 33.9743 128.466 75.7596 101.439 112.114C87.3859 131.017 108.114 138.098 117.417 121.046C117.417 121.046 146.047 72.3979 146.048 72.4008C148.157 81.4376 155.388 134.738 171.185 130.64C185.879 126.826 218.204 65.8176 224.254 53.0604C228.298 44.5352 247.89 19.2857 238.464 9.58065C232.482 3.42107 189.126 -4.26848 197.229 13.4501Z" fill="#D578CD" stroke="black" stroke-width="2" stroke-miterlimit="10" stroke-linecap="round" stroke-linejoin="round"/>
<path opacity="0.2" d="M142.499 68.4424C139.199 72.2112 137.302 77.2654 134.891 81.6377C132.215 86.4888 129.397 91.2528 126.509 95.9801C123.776 100.455 121.007 104.902 118.101 109.266C114.931 114.026 111.612 120.935 106.842 124.146C106.75 124.209 106.755 124.365 106.875 124.395C110.708 125.351 113.234 120.674 115.27 118.09C119.132 113.189 122.755 108.077 126.278 102.928C129.901 97.63 133.284 92.1822 136.52 86.6397C139.547 81.4569 143.691 75.8002 145.001 69.8969C145.301 68.5391 143.545 67.248 142.499 68.4424Z" fill="#D578CD"/>
<path opacity="0.2" d="M175.334 97.2422C174.761 93.5604 173.344 90.0159 172.655 86.3302C171.951 82.5662 171.586 78.75 171.305 74.9337C170.749 67.4144 170.626 59.8573 170.363 52.3234C170.101 44.808 169.778 37.3012 169.392 29.7915C169.007 22.307 169.234 14.4366 167.571 7.10584C167.449 6.56909 166.557 6.54007 166.456 7.10584C165.139 14.4888 165.713 22.3147 165.674 29.7915C165.63 38.2441 165.679 46.6881 165.775 55.1407C165.862 62.8883 165.733 70.69 166.372 78.4173C166.925 85.0856 167.578 93.2219 171.232 98.9714C172.666 101.229 175.714 99.6862 175.334 97.2422Z" fill="#D578CD"/>
<path opacity="0.2" d="M235.589 11.7711C234.577 9.37752 230.363 10.0013 229.934 12.51C229.495 15.0806 229.922 17.4897 229.706 20.0768C229.456 23.0758 228.571 26.1029 227.486 28.8901C225.471 34.0652 222.771 39.0245 220.29 43.9878C215.08 54.4133 209.654 64.7306 204.035 74.9424C198.566 84.8814 192.903 94.7122 187.078 104.447C184.619 108.558 182.309 112.815 179.485 116.693C177.934 118.822 176.162 120.872 174.126 122.557C172.092 124.241 169.642 124.921 167.562 126.459C167.229 126.704 167.182 127.362 167.693 127.453C175.705 128.89 182.592 118.078 186.265 112.491C193.504 101.481 200.235 90.1087 206.824 78.7015C213.416 67.2895 219.761 55.7344 225.872 44.0584C230.352 35.5042 239.823 21.7789 235.589 11.7711Z" fill="#D578CD"/>
<path opacity="0.1" d="M155.973 10.7508C149.959 25.4926 151.178 34.4636 135.801 64.7837C131.485 73.2944 101.35 123.664 108.421 115.02C124.701 95.1232 142.443 62.3157 151.454 39.2363C163.596 8.13768 157.051 8.10867 155.973 10.7508Z" fill="white"/>
<path opacity="0.1" d="M206.842 5.40847C204.197 3.3137 200.227 5.18507 201.045 8.78275C202.393 14.717 213.952 26.3137 202.459 56.395C195.68 74.1377 173.907 113.062 179.932 105.019C196.812 82.4917 228.907 22.8853 206.842 5.40847Z" fill="white"/>
</svg>
